# xmcd
#
# Track frame offsets:
#	150
#	21305
#	48885
#	68440
#	86262
#	109097
#	133856
#	152728
#	173314
#	192757
#
# Disc length: 2911 seconds
# Revision: 0
# Processed by: cddbd v1.5.2PL0 Copyright (c) Steve Scherf et al.
# Submitted via: dBpowerAMP V12.0
#
DISCID=700b5d0a
DTITLE=Various Artist - Nhung vung dat mang ten anh
DYEAR=2004
DGENRE=Bolero
TTITLE0=Lam Quoc Hung - Chieu Tay Do
TTITLE1=Huong Lan - Em ve qua ben Bac
TTITLE2=Lam Quoc Hung - Bai ngoi ca que huong
TTITLE3=Huong Lan - Ly cai mon
TTITLE4=Lam Quoc Hung - Hinh bong que nha
TTITLE5=Huong Lan - Hoa soan ben them cu
TTITLE6=Lam Quoc Hung - Vung dat mang ten anh
TTITLE7=Huong Lan - Bong dien dien
TTITLE8=Lam Quoc Hung - Tau ve que huong
TTITLE9=Lam Quoc Hung - Goi nho que huong
EXTD=
EXTT0=
EXTT1=
EXTT2=
EXTT3=
EXTT4=
EXTT5=
EXTT6=
EXTT7=
EXTT8=
EXTT9=
PLAYORDER=
